<?xml version="1.0"?>
<svg xmlns="http://www.w3.org/2000/svg" height="512px" viewBox="-65 0 511 512" width="512px" class=""><g><g fill-rule="evenodd"><path d="m112.324219 184h156.351562l29.824219-72h-216zm0 0" fill="#a0c8ff" data-original="#A0C8FF" class="" style="fill:#FDEC46" data-old_color="#FFE800"/><path d="m112.324219 184-29.824219-72-72 72 72 29.824219zm0 0" fill="#a0c8ff" data-original="#A0C8FF" class="" style="fill:#FDEC46" data-old_color="#FFE800"/><path d="m82.5 213.824219-72-29.824219v144l72-29.824219zm0 0" fill="#a0c8ff" data-original="#A0C8FF" class="" style="fill:#FDEC46" data-old_color="#FFE800"/><path d="m82.5 298.175781-72 29.824219 72 72 29.824219-72zm0 0" fill="#a0c8ff" data-original="#A0C8FF" class="" style="fill:#FDEC46" data-old_color="#FFE800"/><path d="m112.324219 328-29.824219 72h216l-29.824219-72zm0 0" fill="#60a4ff" data-original="#60A4FF" class="" style="fill:#E4D200" data-old_color="#E6D300"/><path d="m268.675781 328 29.824219 72 72-72-72-29.824219zm0 0" fill="#60a4ff" data-original="#60A4FF" class="" style="fill:#E4D200" data-old_color="#E6D300"/><path d="m298.5 298.175781 72 29.824219v-144l-72 29.824219zm0 0" fill="#60a4ff" data-original="#60A4FF" class="" style="fill:#E4D200" data-old_color="#E6D300"/><path d="m268.675781 328 29.824219-29.824219v-84.351562l-29.824219-29.824219h-156.351562l-29.824219 29.824219v84.351562l29.824219 29.824219zm0 0" fill="#e1eeff" data-original="#E1EEFF" class="" style="fill:#FDFDC6" data-old_color="#F6F6BC"/><path d="m298.5 213.824219 72-29.824219-72-72-29.824219 72zm0 0" fill="#60a4ff" data-original="#60A4FF" class="" style="fill:#E4D200" data-old_color="#E6D300"/></g><path d="m377.570312 176.929688-72-72c-1.875-1.875-4.417968-2.929688-7.070312-2.929688h-216c-2.652344 0-5.195312 1.054688-7.070312 2.929688l-4.179688 4.179687c-3.902344 3.902344-3.902344 10.234375 0 14.140625 1.753906 1.753906 3.992188 2.710938 6.285156 2.890625l22.992188 55.511719-20.371094 20.375-55.507812-22.992188c-.179688-2.292968-1.140626-4.535156-2.894532-6.289062-3.902344-3.90625-10.234375-3.90625-14.140625 0l-4.183593 4.183594c-1.875 1.875-2.929688 4.417968-2.929688 7.070312v144c0 2.652344 1.054688 5.195312 2.929688 7.070312l72 72c1.875 1.875 4.417968 2.929688 7.070312 2.929688h216c2.652344 0 5.195312-1.054688 7.070312-2.929688l72-72c1.875-1.875 2.929688-4.417968 2.929688-7.070312v-144c0-2.652344-1.054688-5.195312-2.929688-7.070312zm-75.558593 205.414062-21.539063-51.996094 20.375-20.375 51.996094 21.539063zm-273.859375-50.832031 52-21.539063 20.375 20.375-21.539063 52zm-7.652344-132.546875 52 21.539062v70.992188l-52 21.539062zm98.503906 139.035156h59.671875c5.523438 0 10-4.476562 10-10s-4.476562-10-10-10h-62.210937l-23.964844-23.964844v-76.070312l23.964844-23.964844h148.066406l23.96875 23.964844v76.070312l-26.894531 26.894532c-2.859375 2.859374-3.71875 7.160156-2.167969 10.898437l24.09375 58.171875h-186.066406zm233.839844-157.511719-51.996094 21.539063-20.375-20.375 21.539063-52zm-90.851562-6.488281h-142.988282l-21.539062-52h186.066406zm46.507812 117.496094v-70.992188l52-21.539062v114.070312zm0 0" data-original="#000000" class="active-path" style="fill:#000000"/><path d="m190.5 53.265625c5.523438 0 10-4.476563 10-10v-33.265625c0-5.523438-4.480469-10-10-10-5.523438 0-10 4.476562-10 10v33.265625c0 5.523437 4.476562 10 10 10zm0 0" data-original="#000000" class="active-path" style="fill:#000000"/><path d="m298.363281 69.175781c1.574219.910157 3.292969 1.339844 4.988281 1.339844 3.457032 0 6.820313-1.792969 8.671876-5l10.136718-17.558594c2.761719-4.78125 1.121094-10.898437-3.660156-13.660156-4.785156-2.761719-10.898438-1.121094-13.660156 3.660156l-10.136719 17.558594c-2.761719 4.78125-1.125 10.898437 3.660156 13.660156zm0 0" data-original="#000000" class="active-path" style="fill:#000000"/><path d="m68.976562 65.515625c1.851563 3.207031 5.214844 5 8.667969 5 1.695313 0 3.417969-.429687 4.992188-1.339844 4.78125-2.761719 6.421875-8.878906 3.660156-13.660156l-10.136719-17.558594c-2.761718-4.78125-8.878906-6.421875-13.660156-3.660156-4.785156 2.761719-6.421875 8.878906-3.660156 13.660156zm0 0" data-original="#000000" class="active-path" style="fill:#000000"/><path d="m190.5 458.734375c-5.523438 0-10 4.476563-10 10v33.265625c0 5.523438 4.476562 10 10 10s10-4.476562 10-10v-33.265625c0-5.523437-4.476562-10-10-10zm0 0" data-original="#000000" class="active-path" style="fill:#000000"/><path d="m312.023438 446.484375c-2.761719-4.78125-8.875-6.421875-13.660157-3.660156-4.785156 2.761719-6.421875 8.878906-3.660156 13.660156l10.136719 17.558594c1.851562 3.207031 5.214844 5 8.671875 5 1.695312 0 3.414062-.433594 4.988281-1.339844 4.78125-2.761719 6.421875-8.878906 3.660156-13.660156zm0 0" data-original="#000000" class="active-path" style="fill:#000000"/><path d="m82.636719 442.824219c-4.785157-2.761719-10.898438-1.121094-13.660157 3.660156l-10.140624 17.558594c-2.757813 4.78125-1.121094 10.898437 3.664062 13.660156 1.574219.910156 3.292969 1.339844 4.988281 1.339844 3.457031 0 6.820313-1.792969 8.671875-5l10.136719-17.558594c2.761719-4.78125 1.121094-10.898437-3.660156-13.660156zm0 0" data-original="#000000" class="active-path" style="fill:#000000"/><path d="m46.5 158c2.558594 0 5.117188-.976562 7.070312-2.929688l.003907-.003906c3.90625-3.90625 3.90625-10.234375 0-14.140625-3.90625-3.902343-10.238281-3.898437-14.144531.003907-3.90625 3.90625-3.90625 10.238281 0 14.144531 1.953124 1.949219 4.511718 2.925781 7.070312 2.925781zm0 0" data-original="#000000" class="active-path" style="fill:#000000"/><path d="m223.671875 318c-5.523437 0-10 4.476562-10 10s4.476563 10 10 10h.007813c5.523437 0 9.996093-4.476562 9.996093-10s-4.480469-10-10.003906-10zm0 0" data-original="#000000" class="active-path" style="fill:#000000"/></g> </svg>
