<?xml version="1.0" standalone="no"?>
<!DOCTYPE svg PUBLIC "-//W3C//DTD SVG 20010904//EN"
 "http://www.w3.org/TR/2001/REC-SVG-20010904/DTD/svg10.dtd">
<svg version="1.0" xmlns="http://www.w3.org/2000/svg"
 width="700.000000pt" height="700.000000pt" viewBox="0 0 700.000000 700.000000"
 preserveAspectRatio="xMidYMid meet">
<metadata>
Created by potrace 1.11, written by Peter Selinger 2001-2013
</metadata>
<g transform="translate(0.000000,700.000000) scale(0.100000,-0.100000)"
fill="#000000" stroke="none">
<path d="M3432 6980 c-66 -40 -67 -45 -67 -345 l0 -272 27 -35 c59 -77 169
-72 225 10 16 24 18 52 18 297 0 242 -2 274 -18 298 -40 61 -126 83 -185 47z"/>
<path d="M1761 6533 c-46 -24 -74 -64 -76 -109 -3 -50 0 -57 127 -272 53 -88
86 -114 143 -114 100 0 168 113 121 200 -74 137 -161 275 -181 288 -38 25 -95
28 -134 7z"/>
<path d="M5121 6532 c-36 -18 -75 -74 -167 -241 -42 -75 -46 -88 -42 -133 7
-73 58 -118 138 -123 35 -2 88 36 117 82 134 218 156 264 148 312 -8 50 -38
89 -81 107 -44 18 -72 18 -113 -4z"/>
<path d="M1972 5594 c-15 -7 -46 -31 -70 -54 -71 -68 -89 -136 -53 -196 l19
-31 -117 -117 -117 -117 -39 17 c-55 23 -118 14 -156 -22 -49 -47 -55 -106
-19 -174 11 -21 4 -30 -106 -141 -111 -112 -119 -118 -139 -105 -34 22 -92 28
-129 12 -41 -17 -121 -97 -134 -134 -12 -35 -12 -2015 0 -2058 6 -24 143 -167
524 -547 292 -293 527 -519 542 -524 16 -6 657 -9 1532 -9 1379 1 1508 2 1531
17 14 9 253 245 532 524 413 414 509 514 516 544 12 47 11 2003 -1 2047 -6 25
-136 160 -514 539 -277 277 -517 513 -531 522 -26 17 -115 18 -1535 18 -1154
1 -1515 -2 -1536 -11z"/>
<path d="M1897 949 c-36 -19 -55 -46 -153 -214 -47 -83 -57 -108 -57 -147 0
-54 20 -90 66 -119 39 -25 106 -21 145 8 14 10 63 84 109 164 72 125 83 150
83 192 0 40 -5 53 -33 83 -43 47 -107 60 -160 33z"/>
<path d="M5009 958 c-62 -16 -109 -85 -101 -149 4 -36 165 -310 195 -333 38
-28 105 -31 144 -7 46 29 67 67 67 120 0 45 -36 117 -147 294 -42 67 -92 91
-158 75z"/>
<path d="M3430 706 c-64 -42 -65 -50 -65 -347 0 -255 1 -269 21 -296 60 -81
177 -79 231 4 16 24 18 56 18 299 0 260 -1 274 -21 301 -25 35 -79 63 -119 62
-16 0 -46 -11 -65 -23z"/>
</g>
</svg>
